<?xml version="1.0" encoding="UTF-8" standalone="no"?>
<!DOCTYPE svg PUBLIC "-//W3C//DTD SVG 1.1//EN" "http://www.w3.org/Graphics/SVG/1.1/DTD/svg11.dtd">
<svg width="100%" height="100%" viewBox="0 0 9 9" version="1.1" xmlns="http://www.w3.org/2000/svg" xmlns:xlink="http://www.w3.org/1999/xlink" xml:space="preserve" xmlns:serif="http://www.serif.com/" style="fill-rule:evenodd;clip-rule:evenodd;stroke-linejoin:round;stroke-miterlimit:2;">
    <g>
        <path d="M9,3C9,2.448 8.552,2 8,2L3,2C2.448,2 2,2.448 2,3L2,8C2,8.552 2.448,9 3,9L8,9C8.552,9 9,8.552 9,8L9,3Z" style="fill-opacity:0.5;"/>
        <path d="M8,2C8,1.448 7.552,1 7,1L2,1C1.448,1 1,1.448 1,2L1,7C1,7.552 1.448,8 2,8L7,8C7.552,8 8,7.552 8,7L8,2Z" style="fill:#ffd183;"/>
    </g>
</svg>
