<?xml version="1.0" encoding="UTF-8" standalone="no"?>
<!DOCTYPE svg PUBLIC "-//W3C//DTD SVG 1.1//EN" "http://www.w3.org/Graphics/SVG/1.1/DTD/svg11.dtd">
<svg width="100%" height="100%" viewBox="0 0 18 18" version="1.1" xmlns="http://www.w3.org/2000/svg" xmlns:xlink="http://www.w3.org/1999/xlink" xml:space="preserve" xmlns:serif="http://www.serif.com/" style="fill-rule:evenodd;clip-rule:evenodd;stroke-linejoin:round;stroke-miterlimit:2;">
    <path d="M18,2L18,16C18,17.104 17.104,18 16,18L2,18C0.896,18 0,17.104 0,16L0,2C0,0.896 0.896,0 2,0L16,0C17.104,0 18,0.896 18,2ZM3,3L3,15L15,15L15,3L3,3Z" style="fill:#1f1f1f;"/>
    <path d="M17,3L17,15C17,16.104 16.104,17 15,17L3,17C1.896,17 1,16.104 1,15L1,3C1,1.896 1.896,1 3,1L15,1C16.104,1 17,1.896 17,3ZM4,4L4,14L14,14L14,4L4,4Z" style="fill:#1f1f1f;"/>
    <rect x="4" y="4" width="10" height="10" style="fill:url(#_Linear1);"/>
    <rect id="rect2" x="4" y="4" width="10" height="10" style="fill:#d8e3ef;fill-opacity:0.18;"/>
    <path id="rect21" serif:id="rect2" d="M17,2L17,16C17,16.552 16.552,17 16,17L2,17C1.448,17 1,16.552 1,16L1,2C1,1.448 1.448,1 2,1L16,1C16.552,1 17,1.448 17,2ZM3,3L3,15L15,15L15,3L3,3Z" style="fill:#7d7669;"/>
    <defs>
        <linearGradient id="_Linear1" x1="0" y1="0" x2="1" y2="0" gradientUnits="userSpaceOnUse" gradientTransform="matrix(1.10218e-15,18,-18,1.10218e-15,9,0)"><stop offset="0" style="stop-color:#dfe7f7;stop-opacity:0.25"/><stop offset="1" style="stop-color:#000;stop-opacity:0.25"/></linearGradient>
    </defs>
</svg>
